<svg width="644" height="217" viewBox="0 0 644 217" fill="none" xmlns="http://www.w3.org/2000/svg">
<rect y="15" width="458" height="186" fill="#FD4E6D"/>
<path d="M643.634 107.833L456.222 201.825L455.618 15.0533L643.634 107.833Z" fill="#FD4E6D"/>
<path d="M81.2273 124V89.0909H93.4318C95.8636 89.0909 97.8693 89.5114 99.4489 90.3523C101.028 91.1818 102.205 92.3011 102.977 93.7102C103.75 95.108 104.136 96.6591 104.136 98.3636C104.136 99.8636 103.869 101.102 103.335 102.08C102.813 103.057 102.119 103.83 101.256 104.398C100.403 104.966 99.4773 105.386 98.4773 105.659V106C99.5455 106.068 100.619 106.443 101.699 107.125C102.778 107.807 103.682 108.784 104.409 110.057C105.136 111.33 105.5 112.886 105.5 114.727C105.5 116.477 105.102 118.051 104.307 119.449C103.511 120.847 102.256 121.955 100.54 122.773C98.8239 123.591 96.5909 124 93.8409 124H81.2273ZM85.4545 120.25H93.8409C96.6023 120.25 98.5625 119.716 99.7216 118.648C100.892 117.568 101.477 116.261 101.477 114.727C101.477 113.545 101.176 112.455 100.574 111.455C99.9716 110.443 99.1136 109.636 98 109.034C96.8864 108.42 95.5682 108.114 94.0455 108.114H85.4545V120.25ZM85.4545 104.432H93.2955C94.5682 104.432 95.7159 104.182 96.7386 103.682C97.7727 103.182 98.5909 102.477 99.1932 101.568C99.8068 100.659 100.114 99.5909 100.114 98.3636C100.114 96.8295 99.5795 95.5284 98.5114 94.4602C97.4432 93.3807 95.75 92.8409 93.4318 92.8409H85.4545V104.432ZM113.878 124H109.446L122.264 89.0909H126.628L139.446 124H135.014L124.582 94.6136H124.31L113.878 124ZM115.514 110.364H133.378V114.114H115.514V110.364ZM171.334 100H167.107C166.857 98.7841 166.419 97.7159 165.794 96.7955C165.18 95.875 164.43 95.1023 163.544 94.4773C162.669 93.8409 161.697 93.3636 160.629 93.0455C159.561 92.7273 158.447 92.5682 157.288 92.5682C155.175 92.5682 153.26 93.1023 151.544 94.1705C149.839 95.2386 148.482 96.8125 147.47 98.892C146.47 100.972 145.97 103.523 145.97 106.545C145.97 109.568 146.47 112.119 147.47 114.199C148.482 116.278 149.839 117.852 151.544 118.92C153.26 119.989 155.175 120.523 157.288 120.523C158.447 120.523 159.561 120.364 160.629 120.045C161.697 119.727 162.669 119.256 163.544 118.631C164.43 117.994 165.18 117.216 165.794 116.295C166.419 115.364 166.857 114.295 167.107 113.091H171.334C171.016 114.875 170.436 116.472 169.595 117.881C168.754 119.29 167.709 120.489 166.459 121.477C165.209 122.455 163.805 123.199 162.249 123.71C160.703 124.222 159.05 124.477 157.288 124.477C154.311 124.477 151.663 123.75 149.345 122.295C147.027 120.841 145.203 118.773 143.874 116.091C142.544 113.409 141.879 110.227 141.879 106.545C141.879 102.864 142.544 99.6818 143.874 97C145.203 94.3182 147.027 92.25 149.345 90.7955C151.663 89.3409 154.311 88.6136 157.288 88.6136C159.05 88.6136 160.703 88.8693 162.249 89.3807C163.805 89.892 165.209 90.642 166.459 91.6307C167.709 92.608 168.754 93.8011 169.595 95.2102C170.436 96.608 171.016 98.2045 171.334 100ZM178.165 124V89.0909H182.392V106.409H182.801L198.483 89.0909H204.006L189.347 104.841L204.006 124H198.892L186.756 107.773L182.392 112.682V124H178.165ZM221.068 92.8409V89.0909H247.25V92.8409H236.273V124H232.045V92.8409H221.068ZM281.776 106.545C281.776 110.227 281.111 113.409 279.781 116.091C278.452 118.773 276.628 120.841 274.31 122.295C271.991 123.75 269.344 124.477 266.366 124.477C263.389 124.477 260.741 123.75 258.423 122.295C256.105 120.841 254.281 118.773 252.952 116.091C251.622 113.409 250.957 110.227 250.957 106.545C250.957 102.864 251.622 99.6818 252.952 97C254.281 94.3182 256.105 92.25 258.423 90.7955C260.741 89.3409 263.389 88.6136 266.366 88.6136C269.344 88.6136 271.991 89.3409 274.31 90.7955C276.628 92.25 278.452 94.3182 279.781 97C281.111 99.6818 281.776 102.864 281.776 106.545ZM277.685 106.545C277.685 103.523 277.179 100.972 276.168 98.892C275.168 96.8125 273.81 95.2386 272.094 94.1705C270.389 93.1023 268.48 92.5682 266.366 92.5682C264.253 92.5682 262.338 93.1023 260.622 94.1705C258.918 95.2386 257.56 96.8125 256.548 98.892C255.548 100.972 255.048 103.523 255.048 106.545C255.048 109.568 255.548 112.119 256.548 114.199C257.56 116.278 258.918 117.852 260.622 118.92C262.338 119.989 264.253 120.523 266.366 120.523C268.48 120.523 270.389 119.989 272.094 118.92C273.81 117.852 275.168 116.278 276.168 114.199C277.179 112.119 277.685 109.568 277.685 106.545ZM302.384 89.0909H307.429L319.293 118.068H319.702L331.565 89.0909H336.611V124H332.656V97.4773H332.315L321.406 124H317.588L306.679 97.4773H306.338V124H302.384V89.0909ZM346.518 124H342.087L354.905 89.0909H359.268L372.087 124H367.655L357.223 94.6136H356.95L346.518 124ZM348.155 110.364H366.018V114.114H348.155V110.364ZM381.751 89.0909V124H377.524V89.0909H381.751ZM417.909 89.0909V124H413.818L394.795 96.5909H394.455V124H390.227V89.0909H394.318L413.409 116.568H413.75V89.0909H417.909Z" fill="white"/>
</svg>
